<?xml version="1.0" encoding="UTF-8"?>
<svg width="1200pt" height="1200pt" version="1.1" viewBox="0 0 1200 1200" xmlns="http://www.w3.org/2000/svg">
 <path d="m247.06 458.82h352.94v70.59h-352.94z" fill-rule="evenodd"/>
 <path d="m247.06 741.18h352.94v70.59h-352.94z" fill-rule="evenodd"/>
 <path d="m600 70.59c-292.39 0-529.41 237.02-529.41 529.41s237.02 529.41 529.41 529.41 529.41-237.02 529.41-529.41-237.02-529.41-529.41-529.41zm0-70.59c331.37 0 600 268.63 600 600s-268.63 600-600 600-600-268.63-600-600 268.63-600 600-600z"/>
 <path d="m720.5 517.3 149.74-149.74 49.914 49.914-149.74 149.74z" fill-rule="evenodd"/>
 <path d="m670.59 467.39 49.914-49.914 99.828 99.828-49.914 49.914z" fill-rule="evenodd"/>
 <path d="m720.5 799.65 149.74-149.74 49.914 49.914-149.74 149.74z" fill-rule="evenodd"/>
 <path d="m670.59 749.74 49.914-49.914 99.828 99.828-49.914 49.914z" fill-rule="evenodd"/>
</svg>
